<svg xmlns="http://www.w3.org/2000/svg" viewBox="0 0 243.37 242.79">
<defs>
  <style>.cls-1{fill-rule:evenodd;}</style>
</defs><title>food</title>
  <g id="Layer_2" data-name="Layer 2">
    <g id="Layer_1-2" data-name="Layer 1">
      <path fill="#EBEEED" class="cls-1" d="M243.22,182.67V58.54c0-21.76,1.95-42.4-10.25-51.82C221-2.54,193.58.46,172.61.46H25.7C15.71,5.16,8,7,3.5,17-1.35,27.65,1.22,48.65,1.22,63.09V165c0,18.28-3.92,46.81,2.28,60.92,7.84,17.88,28.14,16.52,54.09,16.52H177.17c20,0,44.43,2.5,55.8-6.27C245.43,226.59,243.22,204.82,243.22,182.67ZM111.05,91.17c-2,4.16-6.1,7.12-12.25,7.43q-.28,12.57-.58,25.14c0,25,4.25,70.42-1.75,90.86-3,2.31-7.88,5.81-12.83,2.86-8.74-4-6.42-18.52-6.42-30.86V98.53c-6.8-.29-11.18-3.45-13-8.55V23.85L65.81,22l2.37-.4,2.26,2.28q.27,22.8.56,45.61H84.22V23.17l1.71-1.71h3c5.8,9.16,2.53,34.5,2.33,48h13.42q.28-23.14.58-46.29c2.22-1.24,2.4-1.48,5.25-1.14C113.57,27.49,114.23,84.67,111.05,91.17ZM169.22,218c-4.92-.05-6.55-1.06-9.72-2.28-7.4-12.4-3.62-55.71-3.42-75.25H145.22V61.22c0-9.12-1.77-22.53,1.14-29.65,2.64-6.44,12-12.24,21.14-8.55,11.91,4.81,9.72,23.26,9.72,39.91V174.09C177.22,190.85,180.82,212.29,169.22,218Z"/>
    </g>
  </g>
</svg>
